<svg width="606" height="263" viewBox="0 0 606 263" fill="none" xmlns="http://www.w3.org/2000/svg">
<g clip-path="url(#clip0_1_3)">
<path d="M546.63 108.495H191.086C189.577 108.495 188.129 109.095 187.061 110.163C185.994 111.231 185.394 112.68 185.394 114.19C185.394 115.7 185.994 117.149 187.061 118.217C188.129 119.285 189.577 119.885 191.086 119.885H201.157V256.119C201.157 257.629 201.757 259.077 202.825 260.145C203.892 261.213 205.34 261.813 206.849 261.813C208.359 261.813 209.807 261.213 210.875 260.145C211.942 259.077 212.542 257.629 212.542 256.119L212.628 119.885H497.988L524.299 256.119C524.299 257.629 524.899 259.077 525.966 260.145C527.034 261.213 528.481 261.813 529.991 261.813C531.501 261.813 532.949 261.213 534.016 260.145C535.084 259.077 535.683 257.629 535.683 256.119L537.339 119.885H546.63C548.14 119.885 549.587 119.285 550.655 118.217C551.722 117.149 552.322 115.7 552.322 114.19C552.322 112.68 551.722 111.231 550.655 110.163C549.587 109.095 548.14 108.495 546.63 108.495Z" fill="#CCCCCC"/>
<path d="M252.715 83.1206V107.236H192.323C190.741 107.291 189.163 107.034 187.679 106.479C186.196 105.924 184.836 105.082 183.678 104.001C182.52 102.92 181.586 101.622 180.93 100.18C180.273 98.7383 179.907 97.1812 179.852 95.5978C179.797 94.0143 180.054 92.4356 180.609 90.9516C181.163 89.4676 182.005 88.1075 183.085 86.9488C184.165 85.7902 185.463 84.8558 186.904 84.199C188.346 83.5421 189.902 83.1757 191.485 83.1206C191.764 83.1109 192.044 83.1109 192.323 83.1206L252.715 83.1206Z" fill="#F2F2F2"/>
<path d="M254.199 107.05C254.198 107.296 254.101 107.532 253.927 107.706C253.753 107.88 253.517 107.978 253.272 107.978H191.248C187.881 107.976 184.652 106.636 182.272 104.253C179.892 101.87 178.555 98.6396 178.555 95.271C178.555 91.9025 179.892 88.6718 182.272 86.289C184.652 83.9062 187.881 82.5664 191.248 82.5641H253.272C253.393 82.5638 253.514 82.5875 253.627 82.634C253.74 82.6805 253.842 82.7488 253.929 82.8349C254.015 82.9211 254.083 83.0234 254.13 83.1361C254.177 83.2488 254.201 83.3696 254.201 83.4916C254.201 83.6136 254.177 83.7344 254.13 83.8471C254.083 83.9598 254.015 84.0622 253.929 84.1483C253.842 84.2345 253.74 84.3027 253.627 84.3492C253.514 84.3957 253.393 84.4194 253.272 84.4191H191.248C188.374 84.4235 185.619 85.5687 183.588 87.6034C181.558 89.638 180.417 92.3958 180.417 95.271C180.417 98.1463 181.558 100.904 183.588 102.939C185.619 104.973 188.374 106.119 191.248 106.123H253.272C253.517 106.123 253.753 106.221 253.927 106.395C254.101 106.569 254.199 106.805 254.199 107.05Z" fill="#0F365E"/>
<path d="M252.715 88.6857H187.817C187.768 88.686 187.721 88.6668 187.686 88.6323C187.651 88.5979 187.631 88.551 187.631 88.5019C187.631 88.4528 187.65 88.4056 187.684 88.3705C187.718 88.3354 187.765 88.3154 187.814 88.3147H252.715C252.764 88.3152 252.811 88.335 252.845 88.3697C252.879 88.4044 252.899 88.4513 252.899 88.5002C252.899 88.5491 252.879 88.596 252.845 88.6307C252.811 88.6655 252.764 88.6852 252.715 88.6857Z" fill="#CCCCCC"/>
<path d="M252.715 93.1378H187.817C187.768 93.138 187.721 93.1189 187.686 93.0844C187.651 93.05 187.631 93.0031 187.631 92.954C187.631 92.9049 187.65 92.8577 187.684 92.8226C187.718 92.7875 187.765 92.7674 187.814 92.7668H252.715C252.764 92.7673 252.811 92.787 252.845 92.8218C252.879 92.8565 252.899 92.9034 252.899 92.9523C252.899 93.0012 252.879 93.0481 252.845 93.0828C252.811 93.1175 252.764 93.1373 252.715 93.1378Z" fill="#CCCCCC"/>
<path d="M252.715 97.5899H187.817C187.768 97.5901 187.721 97.5709 187.686 97.5365C187.651 97.502 187.631 97.4551 187.631 97.4061C187.631 97.357 187.65 97.3097 187.684 97.2747C187.718 97.2396 187.765 97.2195 187.814 97.2189H252.715C252.764 97.2194 252.811 97.2391 252.845 97.2739C252.879 97.3086 252.899 97.3555 252.899 97.4044C252.899 97.4532 252.879 97.5001 252.845 97.5349C252.811 97.5696 252.764 97.5894 252.715 97.5899Z" fill="#CCCCCC"/>
<path d="M252.715 102.042H187.817C187.768 102.042 187.721 102.023 187.686 101.988C187.651 101.954 187.631 101.907 187.631 101.858C187.631 101.809 187.65 101.762 187.684 101.727C187.718 101.692 187.765 101.672 187.814 101.671H252.715C252.764 101.671 252.811 101.691 252.845 101.726C252.879 101.761 252.899 101.808 252.899 101.856C252.899 101.905 252.879 101.952 252.845 101.987C252.811 102.022 252.764 102.041 252.715 102.042Z" fill="#CCCCCC"/>
<path d="M241.331 57.7136V81.829H180.939C177.742 81.9403 174.633 80.7766 172.294 78.594C169.955 76.4114 168.578 73.3887 168.467 70.1908C168.356 66.9929 169.519 63.8818 171.701 61.5419C173.882 59.202 176.904 57.8249 180.1 57.7136C180.38 57.7039 180.659 57.7039 180.939 57.7136H241.331Z" fill="#F2F2F2"/>
<path d="M242.814 81.6435C242.814 81.8895 242.716 82.1253 242.543 82.2993C242.369 82.4732 242.133 82.5709 241.887 82.571H179.863C176.495 82.571 173.264 81.2323 170.882 78.8493C168.5 76.4662 167.162 73.2342 167.162 69.8641C167.162 66.494 168.5 63.2619 170.882 60.8789C173.264 58.4959 176.495 57.1572 179.863 57.1572H241.887C242.009 57.1572 242.129 57.1811 242.242 57.2278C242.354 57.2744 242.457 57.3427 242.543 57.4288C242.629 57.5149 242.697 57.6172 242.744 57.7297C242.79 57.8422 242.814 57.9629 242.814 58.0847C242.814 58.2065 242.79 58.3271 242.744 58.4396C242.697 58.5521 242.629 58.6544 242.543 58.7405C242.457 58.8266 242.354 58.8949 242.242 58.9416C242.129 58.9882 242.009 59.0122 241.887 59.0122H179.863C176.987 59.0122 174.228 60.1555 172.193 62.1906C170.159 64.2258 169.016 66.986 169.016 69.8641C169.016 72.7422 170.159 75.5024 172.193 77.5376C174.228 79.5727 176.987 80.716 179.863 80.716H241.887C242.133 80.7161 242.369 80.8139 242.543 80.9878C242.716 81.1617 242.814 81.3976 242.814 81.6435Z" fill="#3F3D56"/>
<path d="M241.331 63.2787H176.433C176.384 63.279 176.337 63.2598 176.302 63.2253C176.267 63.1909 176.247 63.144 176.247 63.0949C176.246 63.0458 176.265 62.9986 176.299 62.9635C176.334 62.9284 176.381 62.9084 176.43 62.9077H241.331C241.38 62.9082 241.426 62.928 241.461 62.9627C241.495 62.9974 241.514 63.0443 241.514 63.0932C241.514 63.1421 241.495 63.189 241.461 63.2237C241.426 63.2585 241.38 63.2782 241.331 63.2787Z" fill="#CCCCCC"/>
<path d="M241.331 67.7308H176.433C176.384 67.7311 176.337 67.7119 176.302 67.6774C176.267 67.643 176.247 67.5961 176.247 67.547C176.246 67.498 176.265 67.4507 176.299 67.4156C176.334 67.3805 176.381 67.3604 176.43 67.3598H241.331C241.38 67.3603 241.426 67.3801 241.461 67.4148C241.495 67.4495 241.514 67.4964 241.514 67.5453C241.514 67.5942 241.495 67.6411 241.461 67.6758C241.426 67.7106 241.38 67.7303 241.331 67.7308Z" fill="#CCCCCC"/>
<path d="M241.331 72.1829H176.433C176.384 72.1831 176.337 72.1639 176.302 72.1295C176.267 72.095 176.247 72.0482 176.247 71.9991C176.246 71.95 176.265 71.9027 176.299 71.8677C176.334 71.8326 176.381 71.8125 176.43 71.8119H241.331C241.38 71.8124 241.426 71.8321 241.461 71.8669C241.495 71.9016 241.514 71.9485 241.514 71.9974C241.514 72.0463 241.495 72.0932 241.461 72.1279C241.426 72.1626 241.38 72.1824 241.331 72.1829Z" fill="#CCCCCC"/>
<path d="M241.331 76.6349H176.433C176.384 76.6352 176.337 76.616 176.302 76.5815C176.267 76.5471 176.247 76.5002 176.247 76.4511C176.246 76.402 176.265 76.3548 176.299 76.3197C176.334 76.2846 176.381 76.2646 176.43 76.2639H241.331C241.38 76.2644 241.426 76.2842 241.461 76.3189C241.495 76.3536 241.514 76.4005 241.514 76.4494C241.514 76.4983 241.495 76.5452 241.461 76.5799C241.426 76.6147 241.38 76.6344 241.331 76.6349Z" fill="#CCCCCC"/>
<path d="M311.585 193.829V172.803C311.585 171.873 311.216 170.982 310.559 170.325C309.902 169.668 309.011 169.298 308.082 169.298H228.391C227.462 169.298 226.571 169.668 225.914 170.325C225.257 170.982 224.888 171.873 224.888 172.803V193.829H311.585Z" fill="#CCCCCC"/>
<path d="M311.585 201.714H224.888V228.873H311.585V201.714Z" fill="#CCCCCC"/>
<path d="M224.888 236.758V257.785C224.888 258.714 225.257 259.606 225.914 260.263C226.571 260.92 227.462 261.289 228.391 261.289H308.082C309.011 261.289 309.902 260.92 310.559 260.263C311.216 259.606 311.585 258.714 311.585 257.785V236.758H224.888Z" fill="#CCCCCC"/>
<path d="M267.799 185.068C269.25 185.068 270.426 183.892 270.426 182.44C270.426 180.988 269.25 179.812 267.799 179.812C266.348 179.812 265.172 180.988 265.172 182.44C265.172 183.892 266.348 185.068 267.799 185.068Z" fill="white"/>
<path d="M267.799 220.112C269.25 220.112 270.426 218.936 270.426 217.484C270.426 216.032 269.25 214.856 267.799 214.856C266.348 214.856 265.172 216.032 265.172 217.484C265.172 218.936 266.348 220.112 267.799 220.112Z" fill="white"/>
<path d="M267.94 254.414C269.39 254.414 270.567 253.238 270.567 251.786C270.567 250.335 269.39 249.158 267.94 249.158C266.489 249.158 265.312 250.335 265.312 251.786C265.312 253.238 266.489 254.414 267.94 254.414Z" fill="white"/>
<path d="M301.756 145.324V169.439H241.364C238.169 169.548 235.061 168.384 232.724 166.201C230.387 164.019 229.012 160.998 228.9 157.801C228.789 154.605 229.951 151.495 232.131 149.155C234.31 146.816 237.33 145.438 240.525 145.324C240.804 145.314 241.084 145.314 241.364 145.324H301.756Z" fill="#F2F2F2"/>
<path d="M303.239 169.254C303.239 169.5 303.141 169.736 302.967 169.91C302.794 170.083 302.558 170.181 302.312 170.181H240.288C236.92 170.182 233.69 168.845 231.308 166.463C228.925 164.082 227.586 160.851 227.584 157.482C227.582 154.113 228.917 150.881 231.297 148.496C233.676 146.112 236.905 144.771 240.273 144.767H302.312C302.434 144.767 302.555 144.791 302.668 144.837C302.78 144.884 302.883 144.952 302.969 145.038C303.055 145.124 303.124 145.227 303.171 145.339C303.217 145.452 303.242 145.573 303.242 145.695C303.242 145.817 303.217 145.938 303.171 146.05C303.124 146.163 303.055 146.265 302.969 146.352C302.883 146.438 302.78 146.506 302.668 146.553C302.555 146.599 302.434 146.623 302.312 146.622H240.288C237.414 146.626 234.658 147.771 232.627 149.806C230.596 151.841 229.455 154.599 229.455 157.474C229.455 160.35 230.596 163.108 232.627 165.143C234.658 167.178 237.414 168.323 240.288 168.326H302.312C302.558 168.326 302.794 168.424 302.967 168.598C303.141 168.772 303.239 169.008 303.239 169.254Z" fill="#3F3D56"/>
<path d="M301.756 150.889H236.858C236.809 150.889 236.762 150.87 236.727 150.836C236.692 150.801 236.672 150.754 236.672 150.705C236.671 150.656 236.69 150.609 236.724 150.574C236.759 150.539 236.805 150.519 236.854 150.518H301.756C301.805 150.518 301.851 150.538 301.886 150.573C301.92 150.608 301.939 150.655 301.939 150.704C301.939 150.752 301.92 150.799 301.886 150.834C301.851 150.869 301.804 150.889 301.756 150.889Z" fill="#CCCCCC"/>
<path d="M301.756 155.341H236.858C236.809 155.341 236.762 155.322 236.727 155.288C236.692 155.253 236.672 155.206 236.672 155.157C236.671 155.108 236.69 155.061 236.724 155.026C236.759 154.991 236.805 154.971 236.854 154.97H301.756C301.805 154.971 301.851 154.99 301.886 155.025C301.92 155.06 301.939 155.107 301.939 155.156C301.939 155.205 301.92 155.251 301.886 155.286C301.851 155.321 301.804 155.341 301.756 155.341Z" fill="#CCCCCC"/>
<path d="M301.756 159.793H236.858C236.809 159.793 236.762 159.774 236.727 159.74C236.692 159.705 236.672 159.659 236.672 159.609C236.671 159.56 236.69 159.513 236.724 159.478C236.759 159.443 236.805 159.423 236.854 159.422H301.756C301.805 159.423 301.851 159.442 301.886 159.477C301.92 159.512 301.939 159.559 301.939 159.608C301.939 159.657 301.92 159.704 301.886 159.738C301.851 159.773 301.804 159.793 301.756 159.793Z" fill="#CCCCCC"/>
<path d="M301.756 164.245H236.858C236.809 164.245 236.762 164.226 236.727 164.192C236.692 164.157 236.672 164.11 236.672 164.061C236.671 164.012 236.69 163.965 236.724 163.93C236.759 163.895 236.805 163.875 236.854 163.874H301.756C301.805 163.875 301.851 163.894 301.886 163.929C301.92 163.964 301.939 164.011 301.939 164.06C301.939 164.109 301.92 164.155 301.886 164.19C301.851 164.225 301.804 164.245 301.756 164.245Z" fill="#CCCCCC"/>
<path d="M230.829 49.6688H203.314C203.052 49.6686 202.795 49.7285 202.561 49.844L195.616 53.3221C195.387 53.4193 195.192 53.5816 195.055 53.7888C194.918 53.996 194.845 54.2389 194.845 54.4874C194.845 54.7358 194.918 54.9787 195.055 55.1859C195.192 55.3931 195.387 55.5554 195.616 55.6526L202.561 59.1307C202.795 59.2462 203.052 59.3061 203.314 59.3059H230.829C231.208 59.3279 231.58 59.1995 231.866 58.9486C232.151 58.6977 232.326 58.3445 232.353 57.9654V51.0092C232.326 50.6302 232.151 50.277 231.866 50.0261C231.58 49.7752 231.208 49.6469 230.829 49.6688Z" fill="#3F3D56"/>
<path d="M232.353 51.0093V57.9655C232.326 58.3445 232.151 58.6977 231.866 58.9486C231.58 59.1995 231.208 59.3279 230.829 59.306H225.347V49.6688H230.829C231.208 49.6469 231.58 49.7752 231.866 50.0261C232.151 50.277 232.326 50.6302 232.353 51.0093Z" fill="#0F365E"/>
<path d="M65.8669 185.973C69.4098 187.219 73.2138 187.531 76.9124 186.88C80.6109 186.228 84.0793 184.634 86.9835 182.252C94.3797 176.041 96.6986 165.81 98.5854 156.336C100.446 146.995 102.306 137.654 104.166 128.313L92.4822 136.362C84.0797 142.15 75.4878 148.123 69.67 156.507C63.8521 164.891 61.3126 176.336 65.987 185.408" fill="#E7BB69"/>
<path d="M66.8656 219.9C65.6831 211.283 64.4671 202.554 65.2966 193.844C66.0333 186.108 68.3922 178.553 73.1948 172.358C75.744 169.076 78.8459 166.264 82.361 164.048C83.2777 163.469 84.1213 164.923 83.2087 165.499C77.1265 169.345 72.4222 175.023 69.7739 181.716C66.849 189.159 66.3793 197.272 66.8833 205.179C67.1882 209.96 67.8341 214.71 68.4851 219.454C68.5364 219.668 68.5044 219.894 68.3956 220.086C68.2867 220.278 68.1091 220.421 67.8986 220.487C67.6839 220.545 67.4551 220.516 67.2617 220.406C67.0683 220.296 66.926 220.115 66.8656 219.9Z" fill="#EECD91"/>
<path d="M78.2561 204.651C79.7756 206.961 81.8643 208.841 84.3209 210.11C86.7775 211.378 89.5192 211.993 92.282 211.893C99.3821 211.556 105.301 206.598 110.63 201.892L126.39 187.97L115.959 187.471C108.458 187.112 100.763 186.777 93.6188 189.091C86.4742 191.405 79.885 196.975 78.5786 204.373" fill="#E7BB69"/>
<path d="M63.5236 224.854C69.2155 214.778 75.8178 203.58 87.6148 200.001C90.8949 199.009 94.3344 198.654 97.7479 198.954C98.8237 199.047 98.5551 200.706 97.4812 200.613C91.7594 200.138 86.0486 201.65 81.3103 204.894C76.7507 207.999 73.2006 212.315 70.1958 216.893C68.3553 219.697 66.7066 222.62 65.0577 225.539C64.5307 226.472 62.9904 225.798 63.5236 224.854Z" fill="#EECD91"/>
<path d="M54.4034 235.46C54.5952 233.237 55.393 231.109 56.7101 229.308C58.0271 227.507 59.8128 226.102 61.8728 225.246V219.421H71.6385V225.43C73.5971 226.328 75.2826 227.729 76.5234 229.491C77.7641 231.253 78.5155 233.313 78.7012 235.46L80.9976 262.165H52.107L54.4034 235.46Z" fill="#CCCCCC"/>
<path d="M386.52 107.948L383.615 106.724L381.622 92.1541H355.083L352.923 106.664L350.323 107.965C350.199 108.027 350.099 108.129 350.041 108.255C349.982 108.381 349.967 108.523 349.999 108.659C350.031 108.794 350.107 108.915 350.217 109.001C350.326 109.087 350.461 109.134 350.6 109.134H386.281C386.423 109.134 386.561 109.085 386.672 108.995C386.782 108.904 386.858 108.779 386.886 108.639C386.914 108.499 386.893 108.354 386.826 108.228C386.76 108.102 386.652 108.003 386.52 107.948Z" fill="#E6E6E6"/>
<path d="M433.683 94.0926H303.314C302.63 94.0911 301.974 93.8181 301.491 93.3337C301.008 92.8493 300.737 92.1929 300.737 91.5086V73.1169H436.26V91.5086C436.26 92.1929 435.988 92.8493 435.505 93.3337C435.022 93.8181 434.367 94.091 433.683 94.0926Z" fill="#CCCCCC"/>
<path d="M436.396 81.8092H300.618V3.11492C300.619 2.28906 300.947 1.49731 301.531 0.913356C302.114 0.3294 302.906 0.000924076 303.731 0H433.282C434.108 0.000924061 434.899 0.329401 435.483 0.913356C436.067 1.49731 436.395 2.28906 436.396 3.11492L436.396 81.8092Z" fill="#3F3D56"/>
<path d="M428.286 76.0976H308.727C308.091 76.0969 307.481 75.8437 307.031 75.3935C306.581 74.9433 306.327 74.3329 306.327 73.6962V8.11304C306.327 7.47634 306.581 6.86592 307.031 6.4157C307.481 5.96548 308.091 5.71223 308.727 5.7115H428.286C428.923 5.71223 429.533 5.96548 429.983 6.4157C430.433 6.86592 430.686 7.47634 430.687 8.11304V73.6962C430.686 74.3329 430.433 74.9433 429.983 75.3935C429.533 75.8437 428.923 76.0969 428.286 76.0976Z" fill="white"/>
<path d="M396.796 99.2386C397.568 98.5253 398.487 97.99 399.488 97.6704C400.489 97.3508 401.548 97.2547 402.59 97.3888C403.633 97.5229 404.633 97.884 405.52 98.4467C406.408 99.0094 407.162 99.7599 407.728 100.645L423.9 97.769L428.044 107.174L405.149 110.916C403.599 111.769 401.79 112.024 400.065 111.632C398.34 111.24 396.818 110.228 395.788 108.789C394.759 107.349 394.293 105.582 394.479 103.822C394.664 102.062 395.489 100.431 396.796 99.2386Z" fill="#BE9167"/>
<path d="M411.769 111.248L428.628 111.038L430.762 111.009L465.064 110.576C465.064 110.576 474.378 101.686 482.489 92.533L481.352 84.3067C480.244 76.2334 476.24 68.8382 470.088 63.4973C458.472 71.2628 451.735 86.6339 451.735 86.6339L430.467 91.723L428.339 92.232L415.124 95.3913L411.769 111.248Z" fill="#0F365E"/>
<path d="M498.074 161.81H466.604C466.604 163.159 432.203 164.254 432.203 164.254C431.444 164.826 430.752 165.482 430.141 166.209C428.305 168.4 427.301 171.17 427.307 174.03V175.985C427.308 179.225 428.596 182.333 430.886 184.624C433.176 186.915 436.282 188.203 439.521 188.204H498.074C501.313 188.201 504.418 186.913 506.708 184.622C508.998 182.331 510.286 179.225 510.288 175.985V174.03C510.284 170.79 508.996 167.685 506.706 165.394C504.416 163.104 501.312 161.815 498.074 161.81Z" fill="#E4E4E4"/>
<path d="M475.189 187.719H462.487V261.071H475.189V187.719Z" fill="#E4E4E4"/>
<path d="M426.333 260.625C426.333 261.998 445.582 261.156 469.327 261.156C493.071 261.156 512.32 261.998 512.32 260.625C512.32 259.252 493.071 248.363 469.327 248.363C445.582 248.363 426.333 259.252 426.333 260.625Z" fill="#E4E4E4"/>
<path d="M417.8 252.243L408.346 252.243L403.849 215.762L417.801 215.763L417.8 252.243Z" fill="#BE9167"/>
<path d="M420.211 261.411L389.728 261.41V261.024C389.728 257.876 390.978 254.857 393.203 252.631C395.428 250.405 398.446 249.155 401.593 249.155H401.593L420.211 249.155L420.211 261.411Z" fill="#2F2E41"/>
<path d="M389.858 252.243L380.404 252.243L375.907 215.762L389.86 215.763L389.858 252.243Z" fill="#BE9167"/>
<path d="M392.269 261.411L361.786 261.41V261.024C361.786 257.876 363.036 254.857 365.261 252.631C367.487 250.405 370.504 249.155 373.651 249.155H373.652L392.27 249.155L392.269 261.411Z" fill="#2F2E41"/>
<path d="M474.544 42.2201C483.622 42.2201 490.981 34.8575 490.981 25.7753C490.981 16.6932 483.622 9.33058 474.544 9.33058C465.465 9.33058 458.106 16.6932 458.106 25.7753C458.106 34.8575 465.465 42.2201 474.544 42.2201Z" fill="#BE9167"/>
<path d="M501.148 138.448C501.148 138.448 506.663 167.625 485.678 171.341C464.693 175.056 434.401 177.667 434.401 177.667L420.798 241.163L402.522 239.53C402.522 239.53 404.953 163.096 410.93 157.116C416.907 151.137 454.686 133.231 454.686 133.231L501.148 138.448Z" fill="#2F2E41"/>
<path d="M460.163 126.22L450.985 135.431C450.985 135.431 384.716 146.11 382.159 161.423C378.3 184.541 373.741 234.814 373.741 234.814L393.665 233.319L401.478 176.173L433.357 168.918L469.627 149.143L460.163 126.22Z" fill="#2F2E41"/>
<path d="M490.361 15.9591C488.739 12.8962 486.677 6.79209 483.402 5.66C481.583 5.05667 479.703 4.65604 477.797 4.46539L472.23 6.60739L475.26 4.25001C474.67 4.21485 474.08 4.18611 473.491 4.16378L469.735 5.609L471.656 4.11378C468.155 4.07782 464.54 4.44207 461.827 6.57467C459.514 8.39271 457.222 15.2798 456.852 18.1991C456.456 20.9919 456.594 23.8345 457.26 26.5754L458.211 27.4802C458.544 26.717 458.794 25.9203 458.958 25.1037C459.299 23.5781 459.954 22.1403 460.881 20.8819C461.808 19.6235 462.987 18.5722 464.343 17.7948L464.395 17.7656C465.99 16.8674 467.926 16.9088 469.755 16.9747L478.444 17.2875C480.535 17.3627 482.786 17.495 484.415 18.8069C485.451 19.7746 486.266 20.955 486.803 22.267C487.613 23.9022 489.195 30.0698 489.195 30.0698C489.195 30.0698 490.09 28.9056 490.52 29.7721C491.208 27.5113 491.626 25.177 491.766 22.8178C491.903 20.4482 491.419 18.0839 490.361 15.9591Z" fill="#2F2E41"/>
<path d="M547.853 32.9971C546.804 33.0662 545.783 33.3644 544.863 33.8708C543.942 34.3772 543.143 35.0794 542.523 35.928C541.903 36.7766 541.476 37.751 541.273 38.7824C541.07 39.8139 541.095 40.8773 541.347 41.8979L528.129 51.6526L532.095 61.1346L550.568 47.0968C552.254 46.5594 553.684 45.4221 554.588 43.9003C555.491 42.3786 555.805 40.5781 555.47 38.8402C555.136 37.1022 554.175 35.5474 552.771 34.4705C551.367 33.3936 549.617 32.8694 547.853 32.9971Z" fill="#BE9167"/>
<path d="M545.725 52.9114L512.588 89.7297C512.588 89.7297 496.741 84.6545 484.486 79.1523L478.98 62.2346C477.702 58.31 477.156 54.1834 477.371 50.0611C494.36 45.5383 514.121 62.3672 514.121 62.3672L538.926 42.9295L545.725 52.9114Z" fill="#0F365E"/>
<path d="M468.404 141.168C462.492 139.125 456.379 137.012 449.785 136.219L449.502 136.185L449.58 135.911C456.406 111.934 454.702 96.5962 451.357 73.5569C450.646 68.5873 451.56 63.5208 453.963 59.1137C456.366 54.7065 460.129 51.195 464.691 49.1032L464.731 49.0849L483.564 47.8877L483.607 47.8851L497.303 51.9151C499.274 52.4991 500.998 53.7133 502.213 55.3716C503.427 57.03 504.065 59.0409 504.028 61.0964C503.88 68.6734 504.194 77.1328 504.527 86.0887C505.275 106.181 506.048 126.957 501.662 140.437L501.639 140.508L501.581 140.554C497.549 143.839 492.498 145.614 487.298 145.573C481.151 145.573 474.877 143.405 468.404 141.168Z" fill="#0F365E"/>
<path d="M605.124 263H0.875728C0.643472 263 0.420731 262.908 0.256501 262.743C0.0922715 262.579 3.8147e-06 262.356 3.8147e-06 262.124C3.8147e-06 261.892 0.0922715 261.669 0.256501 261.504C0.420731 261.34 0.643472 261.248 0.875728 261.248H605.124C605.357 261.248 605.579 261.34 605.744 261.504C605.908 261.669 606 261.892 606 262.124C606 262.356 605.908 262.579 605.744 262.743C605.579 262.908 605.357 263 605.124 263Z" fill="#CCCCCC"/>
<path d="M269.319 80.364C269.073 80.3639 268.829 80.415 268.603 80.514C268.377 80.613 268.174 80.7577 268.007 80.939C267.84 81.1203 267.712 81.3343 267.632 81.5674C267.552 81.8006 267.521 82.0478 267.541 82.2935C269.363 90.8782 270.165 99.0646 269.548 106.697C269.587 107.143 269.791 107.558 270.12 107.86C270.449 108.163 270.879 108.333 271.326 108.335H282.839C283.287 108.333 283.717 108.163 284.046 107.86C284.375 107.558 284.579 107.143 284.618 106.697C283.688 98.9985 284.671 90.7781 286.625 82.2935C286.645 82.0478 286.614 81.8006 286.534 81.5674C286.454 81.3343 286.326 81.1203 286.159 80.939C285.992 80.7577 285.789 80.613 285.563 80.514C285.337 80.415 285.093 80.3639 284.846 80.364H269.319Z" fill="#03365E"/>
<path d="M287.547 83.6166L286.688 79.5387C286.61 79.1679 286.406 78.8351 286.112 78.5964C285.817 78.3576 285.45 78.2273 285.071 78.2273H279.708C279.687 78.1561 279.653 78.0896 279.608 78.031L279.012 77.2866C278.956 77.2165 278.884 77.1599 278.803 77.121C278.722 77.082 278.634 77.0618 278.544 77.0618H275.233C275.143 77.0618 275.054 77.082 274.973 77.121C274.892 77.1599 274.821 77.2165 274.765 77.2866L274.169 78.031C274.124 78.0896 274.089 78.1561 274.068 78.2273H269.095C268.716 78.2273 268.348 78.3576 268.054 78.5964C267.759 78.8351 267.556 79.1679 267.478 79.5387L266.619 83.6166C266.568 83.8571 266.572 84.1059 266.63 84.3447C266.687 84.5836 266.798 84.8067 266.953 84.9975C267.108 85.1884 267.303 85.3422 267.525 85.448C267.747 85.5537 267.99 85.6085 268.236 85.6085C273.999 87.3884 280.166 87.3884 285.93 85.6085C286.175 85.6085 286.418 85.5537 286.64 85.448C286.862 85.3422 287.058 85.1884 287.213 84.9975C287.368 84.8067 287.478 84.5837 287.536 84.3448C287.594 84.1059 287.597 83.8571 287.547 83.6166Z" fill="#3F3D56"/>
</g>
<defs>
<clipPath id="clip0_1_3">
<rect width="606" height="263" fill="white"/>
</clipPath>
</defs>
</svg>
